<svg xmlns="http://www.w3.org/2000/svg" xmlns:xlink="http://www.w3.org/1999/xlink" width="500" zoomAndPan="magnify" viewBox="0 0 375 374.999991" height="500" preserveAspectRatio="xMidYMid meet" version="1.0"><defs><g/><clipPath id="5f37b44786"><rect x="0" width="143" y="0" height="227"/></clipPath><clipPath id="d0a0ee001e"><rect x="0" width="244" y="0" height="180"/></clipPath></defs><rect x="-37.5" width="450" fill="#ffffff" y="-37.499999" height="449.999989" fill-opacity="1"/><rect x="-37.5" width="450" fill="#252a5a" y="-37.499999" height="449.999989" fill-opacity="1"/><g transform="matrix(1, 0, 0, 1, 37, 73)"><g clip-path="url(#5f37b44786)"><g fill="#ebc996" fill-opacity="1"><g transform="translate(0.500002, 158.598033)"><g><path d="M 55.453125 -117.875 C 59.316406 -117.875 62.957031 -117.625 66.375 -117.125 C 69.800781 -116.625 73.171875 -115.988281 76.484375 -115.21875 C 80.453125 -114.445312 84.421875 -113.644531 88.390625 -112.8125 C 92.367188 -111.988281 96.347656 -111.132812 100.328125 -110.25 C 101.535156 -109.914062 102.800781 -109.75 104.125 -109.75 C 105.226562 -109.75 106.164062 -109.972656 106.9375 -110.421875 C 107.820312 -110.859375 108.59375 -111.328125 109.25 -111.828125 C 109.914062 -112.328125 110.632812 -112.796875 111.40625 -113.234375 C 114.164062 -114.671875 116.976562 -115.828125 119.84375 -116.703125 C 122.71875 -117.585938 125.757812 -117.863281 128.96875 -117.53125 C 132.9375 -117.207031 136.410156 -115.390625 139.390625 -112.078125 C 140.710938 -110.753906 141.316406 -108.957031 141.203125 -106.6875 C 141.097656 -104.425781 140.382812 -102.523438 139.0625 -100.984375 C 137.070312 -98.554688 134.476562 -97.066406 131.28125 -96.515625 C 127.75 -95.847656 124.21875 -95.679688 120.6875 -96.015625 C 119.25 -96.234375 117.835938 -96.394531 116.453125 -96.5 C 115.078125 -96.613281 113.726562 -96.835938 112.40625 -97.171875 C 110.96875 -97.390625 109.753906 -97.25 108.765625 -96.75 C 107.773438 -96.257812 106.835938 -95.460938 105.953125 -94.359375 C 104.847656 -92.816406 103.710938 -91.300781 102.546875 -89.8125 C 101.390625 -88.320312 100.207031 -86.800781 99 -85.25 C 98.445312 -84.476562 97.863281 -83.675781 97.25 -82.84375 C 96.644531 -82.019531 96.015625 -81.222656 95.359375 -80.453125 C 92.597656 -77.035156 90.003906 -73.445312 87.578125 -69.6875 C 85.148438 -65.9375 82.832031 -62.128906 80.625 -58.265625 C 80.507812 -57.941406 80.367188 -57.613281 80.203125 -57.28125 C 80.035156 -56.945312 79.84375 -56.613281 79.625 -56.28125 C 75.539062 -50.539062 71.757812 -44.664062 68.28125 -38.65625 C 64.8125 -32.644531 60.976562 -26.820312 56.78125 -21.1875 C 55.125 -18.976562 53.410156 -16.796875 51.640625 -14.640625 C 49.878906 -12.492188 48.003906 -10.425781 46.015625 -8.4375 C 45.242188 -7.5625 44.363281 -6.707031 43.375 -5.875 C 42.382812 -5.050781 41.390625 -4.25 40.390625 -3.46875 C 36.421875 -0.71875 32.394531 0.710938 28.3125 0.828125 C 24.226562 0.941406 20.085938 -0.0507812 15.890625 -2.15625 C 13.796875 -3.363281 11.972656 -4.878906 10.421875 -6.703125 C 8.878906 -8.523438 7.503906 -10.484375 6.296875 -12.578125 C 4.960938 -15.234375 3.851562 -17.96875 2.96875 -20.78125 C 2.09375 -23.59375 1.546875 -26.429688 1.328125 -29.296875 C 1.210938 -31.285156 1.15625 -33.300781 1.15625 -35.34375 C 1.15625 -37.382812 1.210938 -39.398438 1.328125 -41.390625 C 1.328125 -42.160156 1.4375 -42.90625 1.65625 -43.625 C 1.875 -44.34375 2.148438 -45.085938 2.484375 -45.859375 C 3.035156 -46.960938 3.832031 -47.757812 4.875 -48.25 C 5.925781 -48.75 7.003906 -48.890625 8.109375 -48.671875 C 10.648438 -47.898438 11.921875 -46.1875 11.921875 -43.53125 C 11.804688 -42.320312 11.691406 -41.082031 11.578125 -39.8125 C 11.472656 -38.539062 11.421875 -37.242188 11.421875 -35.921875 C 11.203125 -29.960938 12.363281 -24.332031 14.90625 -19.03125 C 15.675781 -17.269531 16.722656 -15.5625 18.046875 -13.90625 C 20.140625 -11.476562 22.648438 -10.070312 25.578125 -9.6875 C 28.503906 -9.300781 31.234375 -9.988281 33.765625 -11.75 C 34.984375 -12.632812 36.144531 -13.597656 37.25 -14.640625 C 38.351562 -15.691406 39.457031 -16.769531 40.5625 -17.875 C 43.320312 -20.75 45.859375 -23.785156 48.171875 -26.984375 C 50.492188 -30.179688 52.703125 -33.378906 54.796875 -36.578125 C 56.003906 -38.460938 57.132812 -40.34375 58.1875 -42.21875 C 59.238281 -44.09375 60.316406 -45.910156 61.421875 -47.671875 C 61.640625 -48.003906 61.832031 -48.335938 62 -48.671875 C 62.164062 -49.003906 62.359375 -49.335938 62.578125 -49.671875 C 65.992188 -54.296875 69.109375 -59.09375 71.921875 -64.0625 C 74.742188 -69.03125 77.695312 -73.890625 80.78125 -78.640625 C 81.332031 -79.515625 81.9375 -80.335938 82.59375 -81.109375 C 83.257812 -81.890625 83.867188 -82.664062 84.421875 -83.4375 C 86.078125 -85.644531 87.707031 -87.796875 89.3125 -89.890625 C 90.914062 -91.984375 92.546875 -94.082031 94.203125 -96.1875 C 94.421875 -96.40625 94.640625 -96.675781 94.859375 -97 C 95.078125 -97.332031 95.242188 -97.664062 95.359375 -98 C 95.578125 -98.445312 95.601562 -98.972656 95.4375 -99.578125 C 95.269531 -100.179688 94.96875 -100.539062 94.53125 -100.65625 C 93.757812 -100.875 93.015625 -101.09375 92.296875 -101.3125 C 91.578125 -101.53125 90.832031 -101.695312 90.0625 -101.8125 C 85.976562 -102.695312 81.894531 -103.523438 77.8125 -104.296875 C 73.726562 -105.066406 69.644531 -105.835938 65.5625 -106.609375 C 60.925781 -107.609375 56.125 -107.832031 51.15625 -107.28125 C 43.539062 -106.5 37.304688 -103.019531 32.453125 -96.84375 C 31.234375 -95.1875 30.265625 -93.421875 29.546875 -91.546875 C 28.828125 -89.671875 28.359375 -87.6875 28.140625 -85.59375 C 27.804688 -83.601562 27.695312 -81.585938 27.8125 -79.546875 C 27.925781 -77.503906 28.144531 -75.488281 28.46875 -73.5 C 28.582031 -72.726562 28.832031 -71.925781 29.21875 -71.09375 C 29.601562 -70.269531 29.960938 -69.414062 30.296875 -68.53125 C 30.734375 -67.425781 30.757812 -66.320312 30.375 -65.21875 C 29.988281 -64.113281 29.242188 -63.234375 28.140625 -62.578125 C 27.253906 -61.910156 26.203125 -61.660156 24.984375 -61.828125 C 23.773438 -61.992188 22.785156 -62.519531 22.015625 -63.40625 C 19.585938 -66.050781 18.207031 -68.972656 17.875 -72.171875 C 17.769531 -73.609375 17.660156 -74.988281 17.546875 -76.3125 C 17.429688 -77.632812 17.375 -79.015625 17.375 -80.453125 C 17.269531 -89.722656 19.535156 -97.3125 24.171875 -103.21875 C 28.804688 -109.125 34.988281 -113.457031 42.71875 -116.21875 C 44.914062 -116.988281 47.117188 -117.425781 49.328125 -117.53125 C 51.535156 -117.644531 53.578125 -117.757812 55.453125 -117.875 Z M 55.453125 -117.875 "/></g></g></g></g></g><g transform="matrix(1, 0, 0, 1, 103, 93)"><g clip-path="url(#d0a0ee001e)"><g fill="#ebc996" fill-opacity="1"><g transform="translate(9.141324, 125.898338)"><g><path d="M 1.453125 -7.765625 C 2.066406 -7.765625 2.59375 -7.875 3.03125 -8.09375 C 3.46875 -8.3125 3.859375 -8.507812 4.203125 -8.6875 C 6.222656 -9.914062 8.066406 -11.226562 9.734375 -12.625 C 11.140625 -13.769531 12.476562 -14.929688 13.75 -16.109375 C 15.019531 -17.296875 16.3125 -18.460938 17.625 -19.609375 C 18.851562 -20.660156 20.054688 -21.710938 21.234375 -22.765625 C 22.421875 -23.816406 23.585938 -24.867188 24.734375 -25.921875 C 25.085938 -26.179688 25.4375 -26.441406 25.78125 -26.703125 C 26.132812 -26.972656 26.488281 -27.238281 26.84375 -27.5 C 28.238281 -28.457031 29.726562 -28.410156 31.3125 -27.359375 C 32.007812 -26.835938 32.488281 -26.179688 32.75 -25.390625 C 33.019531 -24.597656 32.976562 -23.804688 32.625 -23.015625 C 32.445312 -22.578125 32.226562 -22.160156 31.96875 -21.765625 C 31.707031 -21.378906 31.445312 -20.96875 31.1875 -20.53125 C 30.570312 -19.644531 29.890625 -18.804688 29.140625 -18.015625 C 28.390625 -17.234375 27.664062 -16.445312 26.96875 -15.65625 C 26.53125 -15.039062 26.066406 -14.40625 25.578125 -13.75 C 25.097656 -13.09375 24.640625 -12.410156 24.203125 -11.703125 C 23.765625 -10.921875 23.457031 -10.003906 23.28125 -8.953125 C 23.019531 -8.066406 23.375 -7.710938 24.34375 -7.890625 C 24.601562 -7.890625 24.992188 -7.976562 25.515625 -8.15625 C 28.148438 -9.289062 30.566406 -10.914062 32.765625 -13.03125 C 33.640625 -13.726562 34.46875 -14.445312 35.25 -15.1875 C 36.039062 -15.9375 36.832031 -16.660156 37.625 -17.359375 C 38.414062 -18.066406 39.160156 -18.816406 39.859375 -19.609375 C 41.003906 -20.828125 42.125 -22.09375 43.21875 -23.40625 C 44.3125 -24.726562 45.429688 -26.003906 46.578125 -27.234375 C 47.359375 -28.109375 48.253906 -28.585938 49.265625 -28.671875 C 50.273438 -28.765625 51.21875 -28.460938 52.09375 -27.765625 C 52.976562 -27.148438 53.460938 -26.289062 53.546875 -25.1875 C 53.628906 -24.09375 53.320312 -23.109375 52.625 -22.234375 C 51.75 -21.265625 50.894531 -20.296875 50.0625 -19.328125 C 49.226562 -18.367188 48.375 -17.40625 47.5 -16.4375 C 47.144531 -16 46.75 -15.5625 46.3125 -15.125 C 45.875 -14.6875 45.4375 -14.25 45 -13.8125 C 43.851562 -12.675781 42.707031 -11.515625 41.5625 -10.328125 C 40.425781 -9.140625 39.203125 -8.066406 37.890625 -7.109375 C 36.921875 -6.398438 35.910156 -5.648438 34.859375 -4.859375 C 33.804688 -4.078125 32.753906 -3.332031 31.703125 -2.625 C 31.003906 -2.1875 30.28125 -1.769531 29.53125 -1.375 C 28.789062 -0.988281 28.023438 -0.707031 27.234375 -0.53125 C 25.828125 -0.175781 24.46875 -0.0390625 23.15625 -0.125 C 21.84375 -0.21875 20.570312 -0.703125 19.34375 -1.578125 C 17.144531 -3.066406 15.875 -4.910156 15.53125 -7.109375 C 15.351562 -7.015625 15.195312 -6.921875 15.0625 -6.828125 C 14.925781 -6.742188 14.773438 -6.617188 14.609375 -6.453125 C 13.640625 -5.835938 12.671875 -5.15625 11.703125 -4.40625 C 10.742188 -3.65625 9.78125 -2.976562 8.8125 -2.375 C 7.144531 -1.40625 5.476562 -0.65625 3.8125 -0.125 C 3.195312 -0.0390625 2.5625 0 1.90625 0 C 1.25 0 0.570312 -0.0390625 -0.125 -0.125 C -0.476562 -0.125 -0.804688 -0.164062 -1.109375 -0.25 C -1.421875 -0.34375 -1.707031 -0.4375 -1.96875 -0.53125 C -2.238281 -0.707031 -2.484375 -0.835938 -2.703125 -0.921875 C -2.921875 -1.003906 -3.113281 -1.09375 -3.28125 -1.1875 C -3.726562 -1.707031 -4.191406 -2.226562 -4.671875 -2.75 C -5.148438 -3.28125 -5.519531 -3.851562 -5.78125 -4.46875 C -6.3125 -5.695312 -6.445312 -7.101562 -6.1875 -8.6875 C -6.007812 -10.4375 -5.632812 -12.144531 -5.0625 -13.8125 C -4.488281 -15.476562 -3.765625 -17.101562 -2.890625 -18.6875 C -2.546875 -19.382812 -2.128906 -20.0625 -1.640625 -20.71875 C -1.160156 -21.375 -0.703125 -22.007812 -0.265625 -22.625 C 0.265625 -23.414062 0.835938 -24.179688 1.453125 -24.921875 C 2.066406 -25.671875 2.675781 -26.398438 3.28125 -27.109375 C 3.726562 -27.804688 4.34375 -28.460938 5.125 -29.078125 C 5.738281 -29.691406 6.351562 -30.257812 6.96875 -30.78125 C 7.582031 -31.3125 8.195312 -31.835938 8.8125 -32.359375 C 10.039062 -33.410156 11.269531 -34.394531 12.5 -35.3125 C 13.726562 -36.238281 15 -37.140625 16.3125 -38.015625 C 18.332031 -39.160156 20.347656 -40.101562 22.359375 -40.84375 C 24.378906 -41.59375 26.488281 -42.144531 28.6875 -42.5 C 30.175781 -42.757812 31.644531 -42.78125 33.09375 -42.5625 C 34.539062 -42.34375 35.875 -41.75 37.09375 -40.78125 C 38.757812 -39.726562 39.769531 -38.148438 40.125 -36.046875 C 40.382812 -34.554688 40.382812 -33.15625 40.125 -31.84375 C 39.6875 -30 38.941406 -28.550781 37.890625 -27.5 C 37.273438 -26.882812 36.484375 -26.550781 35.515625 -26.5 C 34.554688 -26.457031 33.679688 -26.742188 32.890625 -27.359375 C 31.304688 -28.679688 30.957031 -30.304688 31.84375 -32.234375 C 32.1875 -32.671875 32.40625 -33.15625 32.5 -33.6875 C 32.757812 -34.289062 32.492188 -34.640625 31.703125 -34.734375 C 30.910156 -34.910156 30.140625 -34.910156 29.390625 -34.734375 C 28.648438 -34.554688 27.890625 -34.378906 27.109375 -34.203125 C 24.828125 -33.585938 22.585938 -32.625 20.390625 -31.3125 C 18.898438 -30.4375 17.472656 -29.425781 16.109375 -28.28125 C 14.753906 -27.144531 13.421875 -25.960938 12.109375 -24.734375 C 11.671875 -24.296875 11.164062 -23.859375 10.59375 -23.421875 C 10.019531 -22.984375 9.515625 -22.5 9.078125 -21.96875 C 7.941406 -20.5625 6.820312 -19.15625 5.71875 -17.75 C 4.625 -16.351562 3.726562 -14.863281 3.03125 -13.28125 C 2.851562 -12.84375 2.675781 -12.382812 2.5 -11.90625 C 2.320312 -11.425781 2.144531 -10.96875 1.96875 -10.53125 C 1.882812 -10.175781 1.796875 -9.753906 1.703125 -9.265625 C 1.617188 -8.785156 1.535156 -8.285156 1.453125 -7.765625 Z M 1.453125 -7.765625 "/></g></g></g><g fill="#ebc996" fill-opacity="1"><g transform="translate(49.266536, 125.898338)"><g><path d="M 22.109375 -29.078125 C 21.578125 -29.515625 21.066406 -29.953125 20.578125 -30.390625 C 20.097656 -30.828125 19.640625 -31.265625 19.203125 -31.703125 C 18.859375 -31.359375 18.550781 -31.007812 18.28125 -30.65625 C 18.019531 -30.300781 17.757812 -29.945312 17.5 -29.59375 C 16.445312 -28.195312 15.414062 -26.816406 14.40625 -25.453125 C 13.394531 -24.097656 12.320312 -22.71875 11.1875 -21.3125 C 9.34375 -18.945312 7.367188 -16.578125 5.265625 -14.203125 C 5.003906 -13.859375 4.71875 -13.53125 4.40625 -13.21875 C 4.101562 -12.914062 3.726562 -12.585938 3.28125 -12.234375 C 2.5 -11.617188 1.601562 -11.351562 0.59375 -11.4375 C -0.414062 -11.53125 -1.269531 -11.972656 -1.96875 -12.765625 C -2.675781 -13.554688 -3.003906 -14.476562 -2.953125 -15.53125 C -2.910156 -16.582031 -2.539062 -17.457031 -1.84375 -18.15625 C -0.4375 -19.382812 0.832031 -20.722656 1.96875 -22.171875 C 3.113281 -23.617188 4.253906 -25.085938 5.390625 -26.578125 C 6.179688 -27.535156 6.972656 -28.5 7.765625 -29.46875 C 8.554688 -30.4375 9.300781 -31.445312 10 -32.5 C 11.40625 -34.34375 12.804688 -36.398438 14.203125 -38.671875 C 14.910156 -39.734375 15.523438 -40.789062 16.046875 -41.84375 C 16.578125 -42.894531 17.148438 -43.988281 17.765625 -45.125 C 18.816406 -46.96875 20.304688 -47.757812 22.234375 -47.5 C 23.722656 -47.226562 24.726562 -46.457031 25.25 -45.1875 C 25.78125 -43.914062 25.648438 -42.664062 24.859375 -41.4375 C 24.773438 -41.175781 24.664062 -40.914062 24.53125 -40.65625 C 24.40625 -40.394531 24.296875 -40.128906 24.203125 -39.859375 C 23.859375 -38.722656 24.210938 -37.671875 25.265625 -36.703125 C 25.703125 -36.347656 26.140625 -35.972656 26.578125 -35.578125 C 27.015625 -35.191406 27.539062 -34.863281 28.15625 -34.59375 C 28.675781 -34.425781 29.195312 -34.164062 29.71875 -33.8125 C 30.25 -33.457031 30.738281 -33.0625 31.1875 -32.625 C 32.0625 -31.832031 32.519531 -30.863281 32.5625 -29.71875 C 32.601562 -28.582031 32.144531 -27.664062 31.1875 -26.96875 C 30.039062 -26.09375 29.003906 -25.128906 28.078125 -24.078125 C 27.160156 -23.023438 26.265625 -21.925781 25.390625 -20.78125 C 24.253906 -19.289062 23.113281 -17.734375 21.96875 -16.109375 C 20.832031 -14.492188 19.867188 -12.804688 19.078125 -11.046875 C 18.898438 -10.429688 18.722656 -9.835938 18.546875 -9.265625 C 18.367188 -8.703125 18.148438 -8.113281 17.890625 -7.5 C 18.859375 -7.414062 19.757812 -7.503906 20.59375 -7.765625 C 21.425781 -8.023438 22.234375 -8.332031 23.015625 -8.6875 C 24.515625 -9.46875 25.875 -10.363281 27.09375 -11.375 C 28.320312 -12.382812 29.507812 -13.460938 30.65625 -14.609375 C 31.351562 -15.304688 32.050781 -16.023438 32.75 -16.765625 C 33.457031 -17.515625 34.117188 -18.238281 34.734375 -18.9375 C 35.429688 -19.644531 36.039062 -20.414062 36.5625 -21.25 C 37.09375 -22.082031 37.664062 -22.847656 38.28125 -23.546875 C 38.539062 -23.984375 38.820312 -24.378906 39.125 -24.734375 C 39.4375 -25.085938 39.726562 -25.4375 40 -25.78125 C 40.695312 -26.570312 41.523438 -27.007812 42.484375 -27.09375 C 43.453125 -27.1875 44.332031 -26.96875 45.125 -26.4375 C 46 -25.820312 46.546875 -25.03125 46.765625 -24.0625 C 46.984375 -23.101562 46.832031 -22.1875 46.3125 -21.3125 C 45.257812 -19.644531 44.160156 -18.15625 43.015625 -16.84375 C 41.523438 -15 40.035156 -13.242188 38.546875 -11.578125 C 37.929688 -10.960938 37.335938 -10.367188 36.765625 -9.796875 C 36.203125 -9.234375 35.566406 -8.597656 34.859375 -7.890625 C 32.753906 -5.785156 30.253906 -3.898438 27.359375 -2.234375 C 25.960938 -1.441406 24.601562 -0.785156 23.28125 -0.265625 C 22.757812 -0.0859375 22.234375 0.0195312 21.703125 0.0625 C 21.179688 0.101562 20.613281 0.171875 20 0.265625 C 19.382812 0.265625 18.789062 0.265625 18.21875 0.265625 C 17.644531 0.265625 17.050781 0.265625 16.4375 0.265625 C 15.5625 0.171875 14.796875 -0.046875 14.140625 -0.390625 C 13.484375 -0.742188 12.847656 -1.097656 12.234375 -1.453125 C 11.878906 -1.710938 11.59375 -1.972656 11.375 -2.234375 C 11.15625 -2.492188 10.914062 -2.800781 10.65625 -3.15625 C 10.039062 -3.945312 9.773438 -4.867188 9.859375 -5.921875 C 9.953125 -6.710938 10.0625 -7.5 10.1875 -8.28125 C 10.320312 -9.070312 10.519531 -9.820312 10.78125 -10.53125 C 11.394531 -12.632812 12.1875 -14.601562 13.15625 -16.4375 C 14.125 -18.28125 15.21875 -20.035156 16.4375 -21.703125 C 17.320312 -22.929688 18.242188 -24.160156 19.203125 -25.390625 C 20.171875 -26.617188 21.140625 -27.847656 22.109375 -29.078125 Z M 22.109375 -29.078125 "/></g></g></g><g fill="#ebc996" fill-opacity="1"><g transform="translate(86.23434, 125.898338)"><g><path d="M 29.859375 -9.34375 C 30.742188 -9.78125 31.601562 -10.21875 32.4375 -10.65625 C 33.269531 -11.09375 34.035156 -11.617188 34.734375 -12.234375 C 35.691406 -13.023438 36.609375 -13.8125 37.484375 -14.59375 C 38.367188 -15.382812 39.25 -16.175781 40.125 -16.96875 C 40.738281 -17.582031 41.328125 -18.195312 41.890625 -18.8125 C 42.460938 -19.425781 43.054688 -20.039062 43.671875 -20.65625 C 44.992188 -21.96875 46.488281 -22.273438 48.15625 -21.578125 C 49.90625 -20.878906 50.648438 -19.5625 50.390625 -17.625 C 50.390625 -16.75 50.035156 -15.960938 49.328125 -15.265625 C 48.191406 -14.117188 47.03125 -12.953125 45.84375 -11.765625 C 44.664062 -10.585938 43.460938 -9.425781 42.234375 -8.28125 C 40.828125 -7.144531 39.378906 -6.070312 37.890625 -5.0625 C 36.398438 -4.050781 34.863281 -3.109375 33.28125 -2.234375 C 32.320312 -1.710938 31.378906 -1.164062 30.453125 -0.59375 C 29.535156 -0.0195312 28.59375 0.484375 27.625 0.921875 C 26.75 1.359375 25.875 1.773438 25 2.171875 C 24.125 2.566406 23.203125 2.984375 22.234375 3.421875 C 21.703125 3.597656 21.304688 3.90625 21.046875 4.34375 C 20.347656 5.394531 19.644531 6.445312 18.9375 7.5 C 18.238281 8.550781 17.492188 9.601562 16.703125 10.65625 C 16.179688 11.351562 15.632812 12.03125 15.0625 12.6875 C 14.488281 13.351562 13.894531 14.035156 13.28125 14.734375 C 13.019531 15.085938 12.734375 15.414062 12.421875 15.71875 C 12.117188 16.03125 11.835938 16.40625 11.578125 16.84375 C 10.960938 17.539062 10.300781 18.195312 9.59375 18.8125 C 8.894531 19.425781 8.195312 20.039062 7.5 20.65625 C 6.269531 21.707031 4.992188 22.671875 3.671875 23.546875 C 2.359375 24.421875 0.957031 25.253906 -0.53125 26.046875 C -2.363281 27.097656 -4.289062 27.753906 -6.3125 28.015625 C -6.925781 28.109375 -7.539062 28.128906 -8.15625 28.078125 C -8.769531 28.035156 -9.425781 27.972656 -10.125 27.890625 C -11.269531 27.710938 -12.210938 27.296875 -12.953125 26.640625 C -13.703125 25.984375 -14.335938 25.171875 -14.859375 24.203125 C -14.953125 24.023438 -15.039062 23.804688 -15.125 23.546875 C -15.21875 23.285156 -15.304688 23.066406 -15.390625 22.890625 C -16.179688 20.960938 -15.960938 19.117188 -14.734375 17.359375 C -14.117188 16.398438 -13.414062 15.503906 -12.625 14.671875 C -11.84375 13.835938 -11.007812 13.066406 -10.125 12.359375 C -8.457031 11.046875 -6.75 9.816406 -5 8.671875 C -3.25 7.535156 -1.453125 6.488281 0.390625 5.53125 C 1.097656 5.175781 1.710938 4.820312 2.234375 4.46875 C 2.765625 4.125 3.335938 3.773438 3.953125 3.421875 C 4.390625 3.160156 4.78125 2.941406 5.125 2.765625 C 5.476562 2.585938 5.832031 2.410156 6.1875 2.234375 C 7.414062 1.617188 8.617188 1.023438 9.796875 0.453125 C 10.984375 -0.109375 12.191406 -0.65625 13.421875 -1.1875 C 14.554688 -1.707031 15.5625 -2.363281 16.4375 -3.15625 C 17.320312 -3.945312 18.023438 -4.910156 18.546875 -6.046875 C 18.640625 -6.316406 18.769531 -6.582031 18.9375 -6.84375 C 19.113281 -7.101562 19.289062 -7.363281 19.46875 -7.625 C 19.289062 -7.800781 19.203125 -7.890625 19.203125 -7.890625 C 18.859375 -7.628906 18.488281 -7.390625 18.09375 -7.171875 C 17.695312 -6.953125 17.28125 -6.710938 16.84375 -6.453125 C 15.789062 -5.660156 14.691406 -4.957031 13.546875 -4.34375 C 12.410156 -3.726562 11.226562 -3.203125 10 -2.765625 C 8.851562 -2.410156 7.671875 -2.144531 6.453125 -1.96875 C 5.566406 -1.882812 4.707031 -1.953125 3.875 -2.171875 C 3.039062 -2.390625 2.234375 -2.675781 1.453125 -3.03125 C 0.222656 -3.726562 -0.738281 -4.625 -1.4375 -5.71875 C -2.144531 -6.820312 -2.675781 -8.070312 -3.03125 -9.46875 C -3.113281 -10 -3.132812 -10.523438 -3.09375 -11.046875 C -3.050781 -11.578125 -2.984375 -12.101562 -2.890625 -12.625 C -2.710938 -13.59375 -2.492188 -14.515625 -2.234375 -15.390625 C -1.972656 -16.265625 -1.625 -17.144531 -1.1875 -18.03125 C -0.75 -18.8125 -0.332031 -19.597656 0.0625 -20.390625 C 0.457031 -21.179688 0.832031 -21.972656 1.1875 -22.765625 C 1.53125 -23.203125 1.878906 -23.660156 2.234375 -24.140625 C 2.585938 -24.617188 2.9375 -25.035156 3.28125 -25.390625 C 4.164062 -26.265625 5.046875 -27.160156 5.921875 -28.078125 C 6.796875 -29.003906 7.71875 -29.863281 8.6875 -30.65625 C 9.644531 -31.445312 10.609375 -32.171875 11.578125 -32.828125 C 12.546875 -33.484375 13.46875 -34.160156 14.34375 -34.859375 C 15.570312 -35.828125 16.863281 -36.570312 18.21875 -37.09375 C 19.582031 -37.625 20.960938 -38.195312 22.359375 -38.8125 C 23.585938 -39.332031 24.859375 -39.722656 26.171875 -39.984375 C 27.492188 -40.253906 28.769531 -40.566406 30 -40.921875 C 31.84375 -41.359375 33.640625 -41.359375 35.390625 -40.921875 C 36.003906 -40.828125 36.570312 -40.625 37.09375 -40.3125 C 37.625 -40.007812 38.148438 -39.6875 38.671875 -39.34375 C 39.460938 -38.8125 39.945312 -38.082031 40.125 -37.15625 C 40.300781 -36.238281 40.171875 -35.34375 39.734375 -34.46875 C 39.296875 -33.59375 38.632812 -32.976562 37.75 -32.625 C 36.875 -32.269531 36 -32.269531 35.125 -32.625 C 33.988281 -33.238281 32.914062 -33.457031 31.90625 -33.28125 C 30.894531 -33.101562 29.863281 -32.882812 28.8125 -32.625 C 27.40625 -32.269531 26 -31.828125 24.59375 -31.296875 C 23.195312 -30.773438 21.84375 -30.164062 20.53125 -29.46875 C 19.738281 -29.113281 18.96875 -28.671875 18.21875 -28.140625 C 17.476562 -27.617188 16.710938 -27.097656 15.921875 -26.578125 C 14.609375 -25.703125 13.398438 -24.671875 12.296875 -23.484375 C 11.203125 -22.296875 10.085938 -21.132812 8.953125 -20 C 8.242188 -19.289062 7.671875 -18.5 7.234375 -17.625 C 6.796875 -16.75 6.359375 -15.828125 5.921875 -14.859375 C 5.660156 -14.335938 5.460938 -13.789062 5.328125 -13.21875 C 5.191406 -12.644531 5.039062 -12.054688 4.875 -11.453125 C 4.78125 -10.742188 4.90625 -10.234375 5.25 -9.921875 C 5.601562 -9.617188 6.085938 -9.597656 6.703125 -9.859375 C 7.585938 -10.210938 8.421875 -10.566406 9.203125 -10.921875 C 9.992188 -11.273438 10.742188 -11.671875 11.453125 -12.109375 C 13.992188 -13.679688 16.488281 -15.347656 18.9375 -17.109375 C 19.644531 -17.628906 20.347656 -18.21875 21.046875 -18.875 C 21.753906 -19.53125 22.410156 -20.164062 23.015625 -20.78125 C 24.078125 -21.75 25.132812 -22.738281 26.1875 -23.75 C 27.238281 -24.757812 28.242188 -25.742188 29.203125 -26.703125 C 29.554688 -27.054688 29.882812 -27.382812 30.1875 -27.6875 C 30.5 -28 30.785156 -28.332031 31.046875 -28.6875 C 31.742188 -29.644531 32.640625 -30.234375 33.734375 -30.453125 C 34.835938 -30.671875 35.828125 -30.429688 36.703125 -29.734375 C 37.671875 -29.117188 38.238281 -28.238281 38.40625 -27.09375 C 38.582031 -25.957031 38.320312 -24.90625 37.625 -23.9375 C 35.519531 -20.957031 33.765625 -17.929688 32.359375 -14.859375 C 32.097656 -14.160156 31.769531 -13.457031 31.375 -12.75 C 30.976562 -12.050781 30.609375 -11.351562 30.265625 -10.65625 C 30.171875 -10.476562 30.078125 -10.28125 29.984375 -10.0625 C 29.898438 -9.84375 29.769531 -9.644531 29.59375 -9.46875 C 29.6875 -9.46875 29.734375 -9.445312 29.734375 -9.40625 C 29.734375 -9.363281 29.773438 -9.34375 29.859375 -9.34375 Z M -6.84375 20 C -5.875 19.90625 -4.488281 19.351562 -2.6875 18.34375 C -0.894531 17.34375 0.785156 16.179688 2.359375 14.859375 C 3.941406 13.546875 4.953125 12.492188 5.390625 11.703125 C 3.203125 12.847656 1.054688 14.078125 -1.046875 15.390625 C -3.148438 16.703125 -5.082031 18.238281 -6.84375 20 Z M -6.84375 20 "/></g></g></g><g fill="#ebc996" fill-opacity="1"><g transform="translate(132.016546, 125.898338)"><g><path d="M 4.34375 -13.03125 C 4.25 -12.414062 4.113281 -11.734375 3.9375 -10.984375 C 3.769531 -10.234375 3.773438 -9.507812 3.953125 -8.8125 C 4.210938 -8.195312 4.691406 -7.757812 5.390625 -7.5 C 6.878906 -7.144531 8.367188 -7.054688 9.859375 -7.234375 C 11.359375 -7.410156 12.804688 -7.71875 14.203125 -8.15625 C 15.691406 -8.59375 17.09375 -9.140625 18.40625 -9.796875 C 19.726562 -10.453125 21.046875 -11.132812 22.359375 -11.84375 C 22.710938 -12.019531 23.15625 -12.191406 23.6875 -12.359375 C 24.46875 -12.710938 25.234375 -13.128906 25.984375 -13.609375 C 26.734375 -14.097656 27.410156 -14.601562 28.015625 -15.125 C 28.546875 -15.65625 29.09375 -16.140625 29.65625 -16.578125 C 30.226562 -17.015625 30.820312 -17.410156 31.4375 -17.765625 C 32.320312 -18.378906 33.113281 -19.078125 33.8125 -19.859375 C 34.507812 -20.648438 35.210938 -21.398438 35.921875 -22.109375 C 37.054688 -23.242188 38.195312 -24.25 39.34375 -25.125 C 40.125 -25.738281 41.019531 -25.976562 42.03125 -25.84375 C 43.039062 -25.71875 43.851562 -25.304688 44.46875 -24.609375 C 44.726562 -24.335938 44.96875 -24.003906 45.1875 -23.609375 C 45.40625 -23.210938 45.296875 -22.710938 44.859375 -22.109375 C 42.929688 -19.472656 41.175781 -17.273438 39.59375 -15.515625 C 38.019531 -13.765625 36.351562 -12.054688 34.59375 -10.390625 C 33.988281 -9.773438 33.351562 -9.226562 32.6875 -8.75 C 32.03125 -8.269531 31.351562 -7.8125 30.65625 -7.375 C 30.039062 -7.019531 29.445312 -6.6875 28.875 -6.375 C 28.300781 -6.070312 27.710938 -5.742188 27.109375 -5.390625 C 25.960938 -4.773438 24.773438 -4.179688 23.546875 -3.609375 C 22.316406 -3.046875 21.085938 -2.5 19.859375 -1.96875 C 19.078125 -1.625 18.289062 -1.316406 17.5 -1.046875 C 16.707031 -0.785156 15.914062 -0.523438 15.125 -0.265625 C 13.726562 0.171875 12.304688 0.429688 10.859375 0.515625 C 9.410156 0.609375 7.984375 0.613281 6.578125 0.53125 C 5.703125 0.53125 4.867188 0.441406 4.078125 0.265625 C 3.285156 0.0859375 2.492188 -0.0859375 1.703125 -0.265625 C 1.265625 -0.441406 0.828125 -0.722656 0.390625 -1.109375 C -0.046875 -1.503906 -0.484375 -1.878906 -0.921875 -2.234375 C -2.585938 -3.898438 -3.550781 -5.960938 -3.8125 -8.421875 C -3.90625 -10.265625 -3.796875 -12.0625 -3.484375 -13.8125 C -3.179688 -15.5625 -2.722656 -17.269531 -2.109375 -18.9375 C -1.753906 -19.90625 -1.332031 -20.785156 -0.84375 -21.578125 C -0.363281 -22.367188 0.132812 -23.203125 0.65625 -24.078125 C 1.351562 -25.210938 2.117188 -26.304688 2.953125 -27.359375 C 3.785156 -28.410156 4.644531 -29.378906 5.53125 -30.265625 C 6.144531 -30.960938 6.78125 -31.570312 7.4375 -32.09375 C 8.09375 -32.625 8.726562 -33.195312 9.34375 -33.8125 C 9.957031 -34.332031 10.546875 -34.832031 11.109375 -35.3125 C 11.679688 -35.800781 12.273438 -36.3125 12.890625 -36.84375 C 13.859375 -37.71875 14.84375 -38.484375 15.84375 -39.140625 C 16.851562 -39.796875 17.929688 -40.429688 19.078125 -41.046875 C 20.210938 -41.578125 21.328125 -42.082031 22.421875 -42.5625 C 23.523438 -43.039062 24.644531 -43.5 25.78125 -43.9375 C 26.570312 -44.375 27.363281 -44.570312 28.15625 -44.53125 C 28.945312 -44.488281 29.734375 -44.46875 30.515625 -44.46875 C 32.359375 -44.382812 33.941406 -43.726562 35.265625 -42.5 C 36.140625 -41.707031 36.707031 -40.828125 36.96875 -39.859375 C 37.050781 -39.597656 37.113281 -39.332031 37.15625 -39.0625 C 37.207031 -38.800781 37.273438 -38.539062 37.359375 -38.28125 C 37.359375 -38.019531 37.378906 -37.734375 37.421875 -37.421875 C 37.472656 -37.117188 37.453125 -36.835938 37.359375 -36.578125 C 36.660156 -33.941406 35.566406 -31.53125 34.078125 -29.34375 C 33.460938 -28.457031 32.828125 -27.664062 32.171875 -26.96875 C 31.515625 -26.269531 30.832031 -25.566406 30.125 -24.859375 C 29.25 -24.078125 28.347656 -23.351562 27.421875 -22.6875 C 26.503906 -22.03125 25.566406 -21.351562 24.609375 -20.65625 C 23.898438 -20.21875 23.171875 -19.78125 22.421875 -19.34375 C 21.679688 -18.90625 20.914062 -18.46875 20.125 -18.03125 C 19.332031 -17.675781 18.519531 -17.300781 17.6875 -16.90625 C 16.851562 -16.507812 15.957031 -16.132812 15 -15.78125 C 12.800781 -15 10.476562 -14.34375 8.03125 -13.8125 C 7.414062 -13.632812 6.820312 -13.5 6.25 -13.40625 C 5.675781 -13.320312 5.039062 -13.195312 4.34375 -13.03125 Z M 8.953125 -21.96875 C 9.390625 -22.144531 9.847656 -22.296875 10.328125 -22.421875 C 10.804688 -22.554688 11.222656 -22.710938 11.578125 -22.890625 C 12.273438 -23.066406 12.972656 -23.265625 13.671875 -23.484375 C 14.378906 -23.703125 15.039062 -23.988281 15.65625 -24.34375 C 17.675781 -25.476562 19.601562 -26.679688 21.4375 -27.953125 C 23.28125 -29.222656 24.992188 -30.691406 26.578125 -32.359375 C 27.804688 -33.585938 28.726562 -35.082031 29.34375 -36.84375 C 28.988281 -36.75 28.703125 -36.703125 28.484375 -36.703125 C 28.265625 -36.703125 28.066406 -36.660156 27.890625 -36.578125 C 27.535156 -36.484375 27.179688 -36.328125 26.828125 -36.109375 C 26.484375 -35.890625 26.09375 -35.691406 25.65625 -35.515625 C 24.164062 -34.898438 22.71875 -34.175781 21.3125 -33.34375 C 19.90625 -32.507812 18.585938 -31.523438 17.359375 -30.390625 C 16.835938 -29.953125 16.289062 -29.488281 15.71875 -29 C 15.144531 -28.519531 14.597656 -28.0625 14.078125 -27.625 C 12.054688 -25.957031 10.347656 -24.070312 8.953125 -21.96875 Z M 8.953125 -21.96875 "/></g></g></g><g fill="#ebc996" fill-opacity="1"><g transform="translate(168.98435, 125.898338)"><g><path d="M 8.28125 -33.15625 C 7.9375 -33.238281 7.609375 -33.28125 7.296875 -33.28125 C 6.992188 -33.28125 6.664062 -33.28125 6.3125 -33.28125 C 5.175781 -33.195312 4.191406 -33.523438 3.359375 -34.265625 C 2.523438 -35.015625 2.109375 -35.957031 2.109375 -37.09375 C 2.015625 -38.238281 2.363281 -39.179688 3.15625 -39.921875 C 3.945312 -40.671875 4.957031 -41.046875 6.1875 -41.046875 C 7.5 -41.046875 8.832031 -41.066406 10.1875 -41.109375 C 11.550781 -41.148438 12.890625 -41.21875 14.203125 -41.3125 C 14.378906 -41.3125 14.554688 -41.351562 14.734375 -41.4375 C 14.910156 -41.53125 15.039062 -41.617188 15.125 -41.703125 C 16.613281 -43.898438 18.109375 -45.914062 19.609375 -47.75 C 20.566406 -49.070312 21.550781 -50.390625 22.5625 -51.703125 C 23.570312 -53.015625 24.601562 -54.332031 25.65625 -55.65625 C 26.53125 -56.707031 27.382812 -57.734375 28.21875 -58.734375 C 29.050781 -59.742188 29.90625 -60.773438 30.78125 -61.828125 C 31.488281 -62.796875 32.191406 -63.757812 32.890625 -64.71875 C 33.585938 -65.6875 34.289062 -66.65625 35 -67.625 C 36.132812 -68.851562 37.492188 -69.289062 39.078125 -68.9375 C 40.566406 -68.582031 41.53125 -67.570312 41.96875 -65.90625 C 42.226562 -64.851562 41.921875 -63.757812 41.046875 -62.625 C 40.429688 -61.75 39.75 -60.828125 39 -59.859375 C 38.257812 -58.890625 37.539062 -57.925781 36.84375 -56.96875 C 36.394531 -56.351562 35.929688 -55.757812 35.453125 -55.1875 C 34.972656 -54.613281 34.46875 -54.023438 33.9375 -53.421875 C 32.976562 -52.191406 31.972656 -50.9375 30.921875 -49.65625 C 29.867188 -48.382812 28.816406 -47.140625 27.765625 -45.921875 C 27.328125 -45.304688 26.882812 -44.691406 26.4375 -44.078125 C 26 -43.460938 25.5625 -42.847656 25.125 -42.234375 C 25.125 -42.054688 25.082031 -41.878906 25 -41.703125 C 25.695312 -41.703125 26.332031 -41.679688 26.90625 -41.640625 C 27.476562 -41.597656 28.070312 -41.578125 28.6875 -41.578125 C 29.820312 -41.660156 30.9375 -41.703125 32.03125 -41.703125 C 33.132812 -41.703125 34.253906 -41.75 35.390625 -41.84375 C 35.566406 -41.84375 35.765625 -41.863281 35.984375 -41.90625 C 36.203125 -41.945312 36.398438 -41.96875 36.578125 -41.96875 C 37.710938 -42.144531 38.738281 -41.925781 39.65625 -41.3125 C 40.582031 -40.695312 41.085938 -39.816406 41.171875 -38.671875 C 41.347656 -37.617188 41.085938 -36.65625 40.390625 -35.78125 C 39.691406 -34.90625 38.769531 -34.425781 37.625 -34.34375 C 36.21875 -34.25 34.769531 -34.179688 33.28125 -34.140625 C 31.789062 -34.097656 30.300781 -34.03125 28.8125 -33.9375 C 27.226562 -33.851562 25.644531 -33.8125 24.0625 -33.8125 C 22.488281 -33.8125 20.957031 -33.769531 19.46875 -33.6875 C 19.03125 -33.6875 18.722656 -33.550781 18.546875 -33.28125 C 17.671875 -32.144531 16.796875 -31.050781 15.921875 -30 C 15.046875 -28.945312 14.164062 -27.847656 13.28125 -26.703125 C 12.40625 -25.472656 11.570312 -24.203125 10.78125 -22.890625 C 10 -21.578125 9.253906 -20.257812 8.546875 -18.9375 C 8.023438 -17.976562 7.5 -16.992188 6.96875 -15.984375 C 6.445312 -14.972656 5.921875 -13.988281 5.390625 -13.03125 C 5.210938 -12.5 5.035156 -11.96875 4.859375 -11.4375 C 4.691406 -10.914062 4.519531 -10.390625 4.34375 -9.859375 C 4.25 -9.691406 4.203125 -9.34375 4.203125 -8.8125 C 4.117188 -7.851562 4.5625 -7.375 5.53125 -7.375 C 8.070312 -7.375 10.265625 -7.984375 12.109375 -9.203125 C 13.335938 -9.992188 14.519531 -10.828125 15.65625 -11.703125 C 16.789062 -12.585938 17.929688 -13.46875 19.078125 -14.34375 C 20.742188 -15.570312 22.273438 -16.910156 23.671875 -18.359375 C 25.078125 -19.804688 26.351562 -21.359375 27.5 -23.015625 C 27.9375 -23.722656 28.394531 -24.335938 28.875 -24.859375 C 29.351562 -25.390625 29.859375 -25.914062 30.390625 -26.4375 C 31.085938 -27.144531 31.941406 -27.539062 32.953125 -27.625 C 33.960938 -27.71875 34.863281 -27.410156 35.65625 -26.703125 C 36.445312 -26.085938 36.90625 -25.273438 37.03125 -24.265625 C 37.164062 -23.265625 36.925781 -22.320312 36.3125 -21.4375 C 36.21875 -21.175781 36.039062 -20.9375 35.78125 -20.71875 C 35.519531 -20.5 35.300781 -20.257812 35.125 -20 C 33.71875 -18.070312 32.179688 -16.140625 30.515625 -14.203125 C 30.171875 -13.859375 29.820312 -13.53125 29.46875 -13.21875 C 29.113281 -12.914062 28.71875 -12.546875 28.28125 -12.109375 C 28.019531 -11.835938 27.757812 -11.546875 27.5 -11.234375 C 27.238281 -10.929688 26.929688 -10.648438 26.578125 -10.390625 C 26.222656 -10.035156 25.867188 -9.707031 25.515625 -9.40625 C 25.171875 -9.101562 24.78125 -8.773438 24.34375 -8.421875 C 22.9375 -7.453125 21.53125 -6.394531 20.125 -5.25 C 18.726562 -4.113281 17.238281 -3.109375 15.65625 -2.234375 C 13.90625 -1.273438 12.195312 -0.617188 10.53125 -0.265625 C 9.820312 -0.171875 9.09375 -0.0625 8.34375 0.0625 C 7.601562 0.195312 6.882812 0.304688 6.1875 0.390625 C 4.25 0.566406 2.378906 0.109375 0.578125 -0.984375 C -1.210938 -2.078125 -2.457031 -3.503906 -3.15625 -5.265625 C -3.507812 -6.316406 -3.6875 -7.585938 -3.6875 -9.078125 C -3.332031 -12.328125 -2.28125 -15.394531 -0.53125 -18.28125 C 0.175781 -19.507812 0.835938 -20.691406 1.453125 -21.828125 C 2.066406 -22.972656 2.675781 -24.117188 3.28125 -25.265625 C 3.894531 -26.316406 4.550781 -27.367188 5.25 -28.421875 C 5.957031 -29.472656 6.617188 -30.476562 7.234375 -31.4375 C 7.410156 -31.707031 7.585938 -31.972656 7.765625 -32.234375 C 7.941406 -32.492188 8.113281 -32.800781 8.28125 -33.15625 Z M 8.28125 -33.15625 "/></g></g></g><g fill="#ebc996" fill-opacity="1"><g transform="translate(195.032848, 125.898338)"><g><path d="M 45.921875 -21.578125 C 45.828125 -20.703125 45.515625 -19.929688 44.984375 -19.265625 C 44.460938 -18.609375 43.851562 -17.929688 43.15625 -17.234375 C 42.539062 -16.617188 41.925781 -15.984375 41.3125 -15.328125 C 40.695312 -14.671875 40.082031 -13.988281 39.46875 -13.28125 C 38.332031 -11.96875 37.101562 -10.738281 35.78125 -9.59375 C 34.46875 -8.457031 33.109375 -7.363281 31.703125 -6.3125 C 31.085938 -5.875 30.492188 -5.4375 29.921875 -5 C 29.359375 -4.5625 28.769531 -4.125 28.15625 -3.6875 C 26.570312 -2.539062 25.035156 -1.53125 23.546875 -0.65625 C 22.585938 -0.0390625 21.972656 0.832031 21.703125 1.96875 C 20.742188 5.914062 19.125 9.515625 16.84375 12.765625 C 15.96875 13.898438 15.046875 15.015625 14.078125 16.109375 C 13.109375 17.210938 12.054688 18.242188 10.921875 19.203125 C 10.128906 19.816406 9.378906 20.429688 8.671875 21.046875 C 7.972656 21.660156 7.144531 22.1875 6.1875 22.625 C 5.394531 22.976562 4.644531 23.414062 3.9375 23.9375 C 3.238281 24.46875 2.492188 24.953125 1.703125 25.390625 C 0.304688 26.265625 -1.175781 27.007812 -2.75 27.625 C -4.332031 28.238281 -6.003906 28.722656 -7.765625 29.078125 C -9.773438 29.515625 -11.789062 29.25 -13.8125 28.28125 C -14.425781 28.019531 -14.953125 27.625 -15.390625 27.09375 C -15.828125 26.570312 -16.222656 26.003906 -16.578125 25.390625 C -16.753906 24.953125 -16.925781 24.488281 -17.09375 24 C -17.269531 23.519531 -17.40625 23.019531 -17.5 22.5 C -17.757812 20.125 -17.1875 17.972656 -15.78125 16.046875 C -15 14.816406 -14.082031 13.785156 -13.03125 12.953125 C -11.976562 12.117188 -10.921875 11.265625 -9.859375 10.390625 C -8.640625 9.515625 -7.414062 8.660156 -6.1875 7.828125 C -4.957031 6.992188 -3.726562 6.179688 -2.5 5.390625 C -1.96875 4.953125 -1.394531 4.625 -0.78125 4.40625 C -0.175781 4.1875 0.390625 3.945312 0.921875 3.6875 C 1.617188 3.25 2.316406 2.765625 3.015625 2.234375 C 3.722656 1.710938 4.472656 1.273438 5.265625 0.921875 C 6.671875 0.046875 8.117188 -0.785156 9.609375 -1.578125 C 11.097656 -2.367188 12.546875 -3.203125 13.953125 -4.078125 C 14.035156 -4.078125 14.164062 -4.164062 14.34375 -4.34375 C 14.25 -5.394531 14.003906 -6.398438 13.609375 -7.359375 C 13.222656 -8.328125 12.804688 -9.25 12.359375 -10.125 C 12.097656 -10.738281 11.8125 -11.304688 11.5 -11.828125 C 11.195312 -12.359375 10.875 -12.929688 10.53125 -13.546875 C 9.914062 -14.515625 9.757812 -15.546875 10.0625 -16.640625 C 10.375 -17.734375 11.054688 -18.546875 12.109375 -19.078125 C 12.984375 -19.597656 13.878906 -20.078125 14.796875 -20.515625 C 15.722656 -20.960938 16.578125 -21.492188 17.359375 -22.109375 C 18.585938 -22.984375 19.796875 -23.859375 20.984375 -24.734375 C 22.171875 -25.609375 23.203125 -26.660156 24.078125 -27.890625 C 24.691406 -28.765625 25.171875 -29.660156 25.515625 -30.578125 C 25.867188 -31.503906 26.09375 -32.539062 26.1875 -33.6875 C 25.476562 -33.59375 24.796875 -33.4375 24.140625 -33.21875 C 23.484375 -33 22.847656 -32.671875 22.234375 -32.234375 C 21.441406 -31.617188 20.628906 -31.003906 19.796875 -30.390625 C 18.960938 -29.773438 18.148438 -29.117188 17.359375 -28.421875 C 16.140625 -27.273438 14.9375 -26.085938 13.75 -24.859375 C 12.5625 -23.628906 11.398438 -22.40625 10.265625 -21.1875 C 9.554688 -20.476562 8.914062 -19.707031 8.34375 -18.875 C 7.78125 -18.039062 7.148438 -17.226562 6.453125 -16.4375 C 5.484375 -15.039062 4.164062 -14.5625 2.5 -15 C 0.914062 -15.351562 -0.09375 -16.363281 -0.53125 -18.03125 C -0.789062 -18.988281 -0.570312 -19.953125 0.125 -20.921875 C 0.738281 -21.796875 1.375 -22.671875 2.03125 -23.546875 C 2.695312 -24.421875 3.378906 -25.253906 4.078125 -26.046875 C 4.515625 -26.660156 4.992188 -27.207031 5.515625 -27.6875 C 6.046875 -28.175781 6.578125 -28.679688 7.109375 -29.203125 C 8.160156 -30.253906 9.210938 -31.304688 10.265625 -32.359375 C 11.316406 -33.410156 12.410156 -34.460938 13.546875 -35.515625 C 16.441406 -37.972656 19.515625 -39.773438 22.765625 -40.921875 C 23.992188 -41.265625 25.195312 -41.414062 26.375 -41.375 C 27.5625 -41.332031 28.722656 -41.179688 29.859375 -40.921875 C 30.035156 -40.828125 30.210938 -40.757812 30.390625 -40.71875 C 30.566406 -40.675781 30.695312 -40.609375 30.78125 -40.515625 C 31.488281 -39.898438 32.171875 -39.21875 32.828125 -38.46875 C 33.484375 -37.726562 33.851562 -36.789062 33.9375 -35.65625 C 34.113281 -33.457031 33.941406 -31.4375 33.421875 -29.59375 C 32.628906 -26.875 31.398438 -24.507812 29.734375 -22.5 C 28.859375 -21.351562 27.894531 -20.363281 26.84375 -19.53125 C 25.789062 -18.695312 24.691406 -17.890625 23.546875 -17.109375 C 22.929688 -16.578125 22.25 -16.066406 21.5 -15.578125 C 20.757812 -15.097656 19.992188 -14.597656 19.203125 -14.078125 C 19.992188 -12.410156 20.785156 -10.566406 21.578125 -8.546875 C 22.097656 -8.898438 22.617188 -9.25 23.140625 -9.59375 C 23.671875 -9.945312 24.160156 -10.300781 24.609375 -10.65625 C 25.828125 -11.625 27.03125 -12.566406 28.21875 -13.484375 C 29.40625 -14.398438 30.566406 -15.382812 31.703125 -16.4375 C 32.492188 -17.144531 33.257812 -17.890625 34 -18.671875 C 34.75 -19.460938 35.472656 -20.300781 36.171875 -21.1875 C 36.703125 -21.707031 37.207031 -22.253906 37.6875 -22.828125 C 38.175781 -23.398438 38.679688 -23.945312 39.203125 -24.46875 C 40.253906 -25.695312 41.570312 -26.003906 43.15625 -25.390625 C 44.644531 -24.953125 45.519531 -23.988281 45.78125 -22.5 C 45.78125 -22.40625 45.800781 -22.335938 45.84375 -22.296875 C 45.894531 -22.253906 45.921875 -22.191406 45.921875 -22.109375 C 45.921875 -22.015625 45.921875 -21.921875 45.921875 -21.828125 C 45.921875 -21.742188 45.921875 -21.660156 45.921875 -21.578125 Z M 11.703125 6.453125 C 11.617188 6.453125 11.578125 6.425781 11.578125 6.375 C 11.578125 6.332031 11.578125 6.3125 11.578125 6.3125 C 11.316406 6.40625 11.078125 6.492188 10.859375 6.578125 C 10.640625 6.660156 10.441406 6.75 10.265625 6.84375 C 9.648438 7.195312 9.035156 7.59375 8.421875 8.03125 C 7.804688 8.46875 7.191406 8.90625 6.578125 9.34375 C 5.703125 9.78125 4.847656 10.21875 4.015625 10.65625 C 3.179688 11.09375 2.328125 11.53125 1.453125 11.96875 C -0.210938 12.9375 -1.859375 14.054688 -3.484375 15.328125 C -5.109375 16.597656 -6.707031 17.847656 -8.28125 19.078125 C -9.070312 19.691406 -9.554688 20.476562 -9.734375 21.4375 C -9.378906 21.351562 -9.070312 21.3125 -8.8125 21.3125 C -8.550781 21.3125 -8.332031 21.269531 -8.15625 21.1875 C -7.1875 20.832031 -6.285156 20.476562 -5.453125 20.125 C -4.617188 19.78125 -3.765625 19.429688 -2.890625 19.078125 C -1.578125 18.378906 -0.304688 17.632812 0.921875 16.84375 C 2.148438 16.050781 3.332031 15.21875 4.46875 14.34375 C 6.75 12.582031 8.679688 10.648438 10.265625 8.546875 C 10.523438 8.203125 10.765625 7.851562 10.984375 7.5 C 11.203125 7.144531 11.441406 6.796875 11.703125 6.453125 Z M 11.703125 6.453125 "/></g></g></g></g></g></svg>