<svg xmlns="http://www.w3.org/2000/svg" xmlns:xlink="http://www.w3.org/1999/xlink" width="500" zoomAndPan="magnify" viewBox="0 0 375 374.999991" height="500" preserveAspectRatio="xMidYMid meet" version="1.0"><defs><g/><clipPath id="ec37ceae74"><path d="M 27.226562 27.226562 L 347.773438 27.226562 L 347.773438 347.773438 L 27.226562 347.773438 Z M 27.226562 27.226562 " clip-rule="nonzero"/></clipPath><clipPath id="9779b4e076"><path d="M 187.5 27.226562 C 98.984375 27.226562 27.226562 98.984375 27.226562 187.5 C 27.226562 276.015625 98.984375 347.773438 187.5 347.773438 C 276.015625 347.773438 347.773438 276.015625 347.773438 187.5 C 347.773438 98.984375 276.015625 27.226562 187.5 27.226562 Z M 187.5 27.226562 " clip-rule="nonzero"/></clipPath><clipPath id="c5d3642123"><path d="M 0.226562 0.226562 L 320.773438 0.226562 L 320.773438 320.773438 L 0.226562 320.773438 Z M 0.226562 0.226562 " clip-rule="nonzero"/></clipPath><clipPath id="c3dc554f15"><path d="M 160.5 0.226562 C 71.984375 0.226562 0.226562 71.984375 0.226562 160.5 C 0.226562 249.015625 71.984375 320.773438 160.5 320.773438 C 249.015625 320.773438 320.773438 249.015625 320.773438 160.5 C 320.773438 71.984375 249.015625 0.226562 160.5 0.226562 Z M 160.5 0.226562 " clip-rule="nonzero"/></clipPath><clipPath id="7872f79579"><rect x="0" width="321" y="0" height="321"/></clipPath><clipPath id="8cbc9a5258"><path d="M 27.226562 27.226562 L 347.476562 27.226562 L 347.476562 347.476562 L 27.226562 347.476562 Z M 27.226562 27.226562 " clip-rule="nonzero"/></clipPath><clipPath id="5b39446c70"><path d="M 187.496094 27.226562 C 98.980469 27.226562 27.226562 98.980469 27.226562 187.496094 C 27.226562 276.011719 98.980469 347.769531 187.496094 347.769531 C 276.011719 347.769531 347.769531 276.011719 347.769531 187.496094 C 347.769531 98.980469 276.011719 27.226562 187.496094 27.226562 Z M 187.496094 27.226562 " clip-rule="nonzero"/></clipPath><clipPath id="6a2683bfe8"><path d="M 179.988281 162.085938 L 205.488281 162.085938 L 205.488281 187.585938 L 179.988281 187.585938 Z M 179.988281 162.085938 " clip-rule="nonzero"/></clipPath><clipPath id="c8a05bb425"><path d="M 171.035156 194.195312 L 196.535156 194.195312 L 196.535156 219.695312 L 171.035156 219.695312 Z M 171.035156 194.195312 " clip-rule="nonzero"/></clipPath><clipPath id="f0149e8fe5"><path d="M 162.085938 226.304688 L 187.585938 226.304688 L 187.585938 251.804688 L 162.085938 251.804688 Z M 162.085938 226.304688 " clip-rule="nonzero"/></clipPath></defs><g clip-path="url(#ec37ceae74)"><g clip-path="url(#9779b4e076)"><g transform="matrix(1, 0, 0, 1, 27, 27)"><g clip-path="url(#7872f79579)"><g clip-path="url(#c5d3642123)"><g clip-path="url(#c3dc554f15)"><path fill="#252a5a" d="M 0.226562 0.226562 L 320.773438 0.226562 L 320.773438 320.773438 L 0.226562 320.773438 Z M 0.226562 0.226562 " fill-opacity="1" fill-rule="nonzero"/></g></g></g></g></g></g><g clip-path="url(#8cbc9a5258)"><g clip-path="url(#5b39446c70)"><path stroke-linecap="butt" transform="matrix(0.75, 0, 0, 0.75, 27.225852, 27.225848)" fill="none" stroke-linejoin="miter" d="M 213.693669 0.000952917 C 95.672828 0.000952917 0.000946917 95.672834 0.000946917 213.693675 C 0.000946917 331.714516 95.672828 427.391606 213.693669 427.391606 C 331.71451 427.391606 427.3916 331.714516 427.3916 213.693675 C 427.3916 95.672834 331.71451 0.000952917 213.693669 0.000952917 Z M 213.693669 0.000952917 " stroke="#ebc996" stroke-width="20" stroke-opacity="1" stroke-miterlimit="4"/></g></g><g fill="#ebc996" fill-opacity="1"><g transform="translate(62.307277, 288.43464)"><g><path d="M 45.4375 -199.34375 C 51.351562 -200.644531 57.015625 -201.484375 62.421875 -201.859375 C 67.835938 -202.242188 73.21875 -202.40625 78.5625 -202.34375 C 84.90625 -202.476562 91.257812 -202.582031 97.625 -202.65625 C 104 -202.726562 110.378906 -202.753906 116.765625 -202.734375 C 118.742188 -202.628906 120.753906 -202.796875 122.796875 -203.234375 C 124.484375 -203.609375 125.835938 -204.269531 126.859375 -205.21875 C 128.066406 -206.175781 129.09375 -207.148438 129.9375 -208.140625 C 130.789062 -209.128906 131.738281 -210.085938 132.78125 -211.015625 C 136.53125 -214.140625 140.457031 -216.859375 144.5625 -219.171875 C 148.664062 -221.492188 153.222656 -222.941406 158.234375 -223.515625 C 164.441406 -224.335938 170.382812 -222.710938 176.0625 -218.640625 C 178.539062 -217.054688 180.070312 -214.507812 180.65625 -211 C 181.25 -207.5 180.785156 -204.34375 179.265625 -201.53125 C 177.035156 -197.132812 173.5625 -193.976562 168.84375 -192.0625 C 163.664062 -189.863281 158.3125 -188.421875 152.78125 -187.734375 C 150.5 -187.597656 148.285156 -187.378906 146.140625 -187.078125 C 143.992188 -186.785156 141.84375 -186.671875 139.6875 -186.734375 C 137.414062 -186.585938 135.601562 -185.96875 134.25 -184.875 C 132.894531 -183.78125 131.722656 -182.242188 130.734375 -180.265625 C 129.554688 -177.523438 128.328125 -174.816406 127.046875 -172.140625 C 125.773438 -169.460938 124.472656 -166.738281 123.140625 -163.96875 C 122.546875 -162.59375 121.925781 -161.164062 121.28125 -159.6875 C 120.632812 -158.21875 119.925781 -156.785156 119.15625 -155.390625 C 116.09375 -149.210938 113.328125 -142.835938 110.859375 -136.265625 C 108.398438 -129.691406 106.117188 -123.070312 104.015625 -116.40625 C 103.972656 -115.875 103.878906 -115.328125 103.734375 -114.765625 C 103.585938 -114.203125 103.40625 -113.628906 103.1875 -113.046875 C 98.84375 -102.867188 95.015625 -92.585938 91.703125 -82.203125 C 88.398438 -71.816406 84.476562 -61.609375 79.9375 -51.578125 C 78.144531 -47.617188 76.253906 -43.691406 74.265625 -39.796875 C 72.285156 -35.898438 70.109375 -32.097656 67.734375 -28.390625 C 66.835938 -26.773438 65.765625 -25.164062 64.515625 -23.5625 C 63.265625 -21.96875 62.007812 -20.410156 60.75 -18.890625 C 55.59375 -13.328125 49.898438 -9.773438 43.671875 -8.234375 C 37.441406 -6.691406 30.765625 -6.828125 23.640625 -8.640625 C 20.015625 -9.796875 16.710938 -11.507812 13.734375 -13.78125 C 10.753906 -16.050781 7.976562 -18.59375 5.40625 -21.40625 C 2.488281 -25.007812 -0.113281 -28.820312 -2.40625 -32.84375 C -4.707031 -36.875 -6.507812 -41.046875 -7.8125 -45.359375 C -8.65625 -48.378906 -9.421875 -51.453125 -10.109375 -54.578125 C -10.796875 -57.710938 -11.382812 -60.816406 -11.875 -63.890625 C -12.132812 -65.078125 -12.210938 -66.257812 -12.109375 -67.4375 C -12.015625 -68.613281 -11.847656 -69.84375 -11.609375 -71.125 C -11.117188 -73.007812 -10.148438 -74.507812 -8.703125 -75.625 C -7.265625 -76.738281 -5.664062 -77.3125 -3.90625 -77.34375 C 0.238281 -77.007812 2.753906 -74.8125 3.640625 -70.75 C 3.890625 -68.863281 4.140625 -66.925781 4.390625 -64.9375 C 4.640625 -62.945312 4.988281 -60.929688 5.4375 -58.890625 C 7.101562 -49.691406 10.773438 -41.457031 16.453125 -34.1875 C 18.234375 -31.738281 20.414062 -29.472656 23 -27.390625 C 27.03125 -24.367188 31.347656 -23.050781 35.953125 -23.4375 C 40.566406 -23.832031 44.519531 -25.8125 47.8125 -29.375 C 49.382812 -31.132812 50.835938 -33 52.171875 -34.96875 C 53.515625 -36.945312 54.851562 -38.96875 56.1875 -41.03125 C 59.445312 -46.351562 62.316406 -51.859375 64.796875 -57.546875 C 67.273438 -63.234375 69.582031 -68.882812 71.71875 -74.5 C 72.945312 -77.78125 74.050781 -81.035156 75.03125 -84.265625 C 76.007812 -87.492188 77.046875 -90.644531 78.140625 -93.71875 C 78.367188 -94.300781 78.554688 -94.875 78.703125 -95.4375 C 78.847656 -96.007812 79.03125 -96.582031 79.25 -97.15625 C 82.9375 -105.40625 86.101562 -113.8125 88.75 -122.375 C 91.40625 -130.9375 94.304688 -139.378906 97.453125 -147.703125 C 97.992188 -149.234375 98.640625 -150.703125 99.390625 -152.109375 C 100.148438 -153.515625 100.820312 -154.90625 101.40625 -156.28125 C 103.207031 -160.21875 104.976562 -164.054688 106.71875 -167.796875 C 108.46875 -171.546875 110.269531 -175.3125 112.125 -179.09375 C 112.375 -179.507812 112.613281 -180.003906 112.84375 -180.578125 C 113.070312 -181.160156 113.210938 -181.726562 113.265625 -182.28125 C 113.460938 -183.03125 113.332031 -183.84375 112.875 -184.71875 C 112.414062 -185.59375 111.828125 -186.039062 111.109375 -186.0625 C 109.859375 -186.144531 108.644531 -186.234375 107.46875 -186.328125 C 106.300781 -186.421875 105.097656 -186.425781 103.859375 -186.34375 C 97.316406 -186.320312 90.78125 -186.21875 84.25 -186.03125 C 77.726562 -185.84375 71.207031 -185.65625 64.6875 -185.46875 C 57.257812 -185.4375 49.828125 -184.164062 42.390625 -181.65625 C 30.972656 -177.90625 22.578125 -170.476562 17.203125 -159.375 C 15.898438 -156.425781 15.015625 -153.390625 14.546875 -150.265625 C 14.085938 -147.148438 14.035156 -143.953125 14.390625 -140.671875 C 14.554688 -137.515625 15.066406 -134.390625 15.921875 -131.296875 C 16.773438 -128.203125 17.789062 -125.1875 18.96875 -122.25 C 19.394531 -121.113281 20.039062 -119.972656 20.90625 -118.828125 C 21.78125 -117.679688 22.617188 -116.484375 23.421875 -115.234375 C 24.472656 -113.703125 24.882812 -112.023438 24.65625 -110.203125 C 24.4375 -108.390625 23.59375 -106.785156 22.125 -105.390625 C 21 -104.085938 19.472656 -103.351562 17.546875 -103.1875 C 15.628906 -103.03125 13.9375 -103.5 12.46875 -104.59375 C 7.851562 -107.84375 4.75 -111.863281 3.15625 -116.65625 C 2.507812 -118.820312 1.878906 -120.90625 1.265625 -122.90625 C 0.660156 -124.90625 0.113281 -127.003906 -0.375 -129.203125 C -3.664062 -143.367188 -2.75 -155.753906 2.375 -166.359375 C 7.507812 -176.972656 15.535156 -185.691406 26.453125 -192.515625 C 29.578125 -194.441406 32.8125 -195.859375 36.15625 -196.765625 C 39.5 -197.679688 42.59375 -198.539062 45.4375 -199.34375 Z M 45.4375 -199.34375 "/></g></g></g><g clip-path="url(#6a2683bfe8)"><path fill="#eae4d9" d="M 205.394531 174.789062 C 205.394531 175.621094 205.3125 176.449219 205.148438 177.265625 C 204.988281 178.085938 204.746094 178.878906 204.425781 179.648438 C 204.109375 180.417969 203.714844 181.152344 203.253906 181.84375 C 202.789062 182.539062 202.261719 183.179688 201.671875 183.769531 C 201.082031 184.359375 200.441406 184.886719 199.75 185.351562 C 199.054688 185.8125 198.324219 186.203125 197.550781 186.523438 C 196.78125 186.84375 195.988281 187.085938 195.167969 187.246094 C 194.351562 187.410156 193.523438 187.492188 192.691406 187.492188 C 191.855469 187.492188 191.03125 187.410156 190.210938 187.246094 C 189.394531 187.085938 188.601562 186.84375 187.828125 186.523438 C 187.058594 186.203125 186.328125 185.8125 185.632812 185.351562 C 184.941406 184.886719 184.296875 184.359375 183.707031 183.769531 C 183.117188 183.179688 182.589844 182.539062 182.128906 181.84375 C 181.664062 181.152344 181.273438 180.417969 180.953125 179.648438 C 180.636719 178.878906 180.394531 178.085938 180.230469 177.265625 C 180.070312 176.449219 179.988281 175.621094 179.988281 174.789062 C 179.988281 173.953125 180.070312 173.128906 180.230469 172.308594 C 180.394531 171.492188 180.636719 170.695312 180.953125 169.925781 C 181.273438 169.15625 181.664062 168.425781 182.128906 167.730469 C 182.589844 167.035156 183.117188 166.394531 183.707031 165.804688 C 184.296875 165.214844 184.941406 164.6875 185.632812 164.226562 C 186.328125 163.761719 187.058594 163.371094 187.828125 163.050781 C 188.601562 162.734375 189.394531 162.492188 190.210938 162.328125 C 191.03125 162.167969 191.855469 162.085938 192.691406 162.085938 C 193.523438 162.085938 194.351562 162.167969 195.167969 162.328125 C 195.988281 162.492188 196.78125 162.734375 197.550781 163.050781 C 198.324219 163.371094 199.054688 163.761719 199.75 164.226562 C 200.441406 164.6875 201.082031 165.214844 201.671875 165.804688 C 202.261719 166.394531 202.789062 167.035156 203.253906 167.730469 C 203.714844 168.425781 204.109375 169.15625 204.425781 169.925781 C 204.746094 170.695312 204.988281 171.492188 205.148438 172.308594 C 205.3125 173.128906 205.394531 173.953125 205.394531 174.789062 Z M 205.394531 174.789062 " fill-opacity="1" fill-rule="nonzero"/></g><g clip-path="url(#c8a05bb425)"><path fill="#eae4d9" d="M 196.441406 206.898438 C 196.441406 207.730469 196.359375 208.558594 196.199219 209.375 C 196.035156 210.195312 195.792969 210.988281 195.476562 211.757812 C 195.15625 212.527344 194.765625 213.261719 194.300781 213.953125 C 193.839844 214.648438 193.3125 215.289062 192.722656 215.878906 C 192.132812 216.46875 191.488281 216.996094 190.796875 217.460938 C 190.101562 217.921875 189.371094 218.3125 188.601562 218.632812 C 187.828125 218.953125 187.035156 219.195312 186.21875 219.355469 C 185.398438 219.519531 184.574219 219.601562 183.738281 219.601562 C 182.90625 219.601562 182.078125 219.519531 181.261719 219.355469 C 180.441406 219.195312 179.648438 218.953125 178.878906 218.632812 C 178.105469 218.3125 177.375 217.921875 176.683594 217.460938 C 175.988281 216.996094 175.347656 216.46875 174.757812 215.878906 C 174.167969 215.289062 173.640625 214.648438 173.175781 213.953125 C 172.714844 213.261719 172.320312 212.527344 172.003906 211.757812 C 171.683594 210.988281 171.441406 210.195312 171.28125 209.375 C 171.117188 208.558594 171.035156 207.730469 171.035156 206.898438 C 171.035156 206.0625 171.117188 205.238281 171.28125 204.417969 C 171.441406 203.601562 171.683594 202.808594 172.003906 202.035156 C 172.320312 201.265625 172.714844 200.535156 173.175781 199.839844 C 173.640625 199.144531 174.167969 198.503906 174.757812 197.914062 C 175.347656 197.324219 175.988281 196.796875 176.683594 196.335938 C 177.375 195.871094 178.105469 195.480469 178.878906 195.160156 C 179.648438 194.84375 180.441406 194.601562 181.261719 194.4375 C 182.078125 194.277344 182.90625 194.195312 183.738281 194.195312 C 184.574219 194.195312 185.398438 194.277344 186.21875 194.4375 C 187.035156 194.601562 187.828125 194.84375 188.601562 195.160156 C 189.371094 195.480469 190.101562 195.871094 190.796875 196.335938 C 191.488281 196.796875 192.132812 197.324219 192.722656 197.914062 C 193.3125 198.503906 193.839844 199.144531 194.300781 199.839844 C 194.765625 200.535156 195.15625 201.265625 195.476562 202.035156 C 195.792969 202.808594 196.035156 203.601562 196.199219 204.417969 C 196.359375 205.238281 196.441406 206.0625 196.441406 206.898438 Z M 196.441406 206.898438 " fill-opacity="1" fill-rule="nonzero"/></g><g clip-path="url(#f0149e8fe5)"><path fill="#eae4d9" d="M 187.492188 239.007812 C 187.492188 239.839844 187.410156 240.667969 187.246094 241.484375 C 187.085938 242.304688 186.84375 243.097656 186.523438 243.867188 C 186.203125 244.640625 185.8125 245.371094 185.351562 246.0625 C 184.886719 246.757812 184.359375 247.398438 183.769531 247.988281 C 183.179688 248.578125 182.539062 249.105469 181.84375 249.570312 C 181.152344 250.03125 180.417969 250.425781 179.648438 250.742188 C 178.878906 251.0625 178.085938 251.304688 177.265625 251.464844 C 176.449219 251.628906 175.621094 251.710938 174.789062 251.710938 C 173.953125 251.710938 173.128906 251.628906 172.308594 251.464844 C 171.492188 251.304688 170.695312 251.0625 169.925781 250.742188 C 169.15625 250.425781 168.425781 250.03125 167.730469 249.570312 C 167.035156 249.105469 166.394531 248.578125 165.804688 247.988281 C 165.214844 247.398438 164.6875 246.757812 164.226562 246.0625 C 163.761719 245.371094 163.371094 244.640625 163.050781 243.867188 C 162.734375 243.097656 162.492188 242.304688 162.328125 241.484375 C 162.167969 240.667969 162.085938 239.839844 162.085938 239.007812 C 162.085938 238.171875 162.167969 237.347656 162.328125 236.527344 C 162.492188 235.710938 162.734375 234.917969 163.050781 234.144531 C 163.371094 233.375 163.761719 232.644531 164.226562 231.949219 C 164.6875 231.257812 165.214844 230.613281 165.804688 230.023438 C 166.394531 229.433594 167.035156 228.90625 167.730469 228.445312 C 168.425781 227.980469 169.15625 227.589844 169.925781 227.269531 C 170.695312 226.953125 171.492188 226.710938 172.308594 226.546875 C 173.128906 226.386719 173.953125 226.304688 174.789062 226.304688 C 175.621094 226.304688 176.449219 226.386719 177.265625 226.546875 C 178.085938 226.710938 178.878906 226.953125 179.648438 227.269531 C 180.417969 227.589844 181.152344 227.980469 181.84375 228.445312 C 182.539062 228.90625 183.179688 229.433594 183.769531 230.023438 C 184.359375 230.613281 184.886719 231.257812 185.351562 231.949219 C 185.8125 232.644531 186.203125 233.375 186.523438 234.144531 C 186.84375 234.917969 187.085938 235.710938 187.246094 236.527344 C 187.410156 237.347656 187.492188 238.171875 187.492188 239.007812 Z M 187.492188 239.007812 " fill-opacity="1" fill-rule="nonzero"/></g><path stroke-linecap="round" transform="matrix(0.75, 0, 0, 0.75, 212.641911, 167.442351)" fill="none" stroke-linejoin="miter" d="M 11.998287 11.998741 L 118.784752 11.998741 " stroke="#eae4d9" stroke-width="24" stroke-opacity="1" stroke-miterlimit="4"/><path stroke-linecap="round" transform="matrix(0.75, 0.000000000000000297, -0.000000000000000297, 0.75, 203.001406, 200.409536)" fill="none" stroke-linejoin="miter" d="M 11.998126 12.000827 L 131.638758 12.000827 " stroke="#eae4d9" stroke-width="24" stroke-opacity="1" stroke-miterlimit="4"/><path stroke-linecap="round" transform="matrix(0.75, 0, 0, 0.75, 194.201257, 231.319086)" fill="none" stroke-linejoin="miter" d="M 12.002491 12.001636 L 141.169166 12.001636 " stroke="#eae4d9" stroke-width="24" stroke-opacity="1" stroke-miterlimit="4"/></svg>